<svg width="1440" height="1024" viewBox="0 0 1440 1024" fill="none" xmlns="http://www.w3.org/2000/svg">
<g clip-path="url(#clip0_2_8)">
<path d="M1440 0H0V1024H1440V0Z" fill="#F5F5F5"/>
<path d="M1440 0H0V1024H1440V0Z" fill="#237EB1" fill-opacity="0.33"/>
<path d="M815 226H625C494.661 226 389 331.661 389 462C389 592.339 494.661 698 625 698H815C945.339 698 1051 592.339 1051 462C1051 331.661 945.339 226 815 226Z" fill="#D92424"/>
<path d="M496.136 436L503.864 389.455H522.5C525.924 389.455 528.697 389.962 530.818 390.977C532.955 391.992 534.447 393.402 535.295 395.205C536.144 396.992 536.371 399.053 535.977 401.386C535.659 403.205 535.015 404.795 534.045 406.159C533.091 407.523 531.909 408.644 530.5 409.523C529.091 410.402 527.561 411.023 525.909 411.386L525.818 411.841C527.576 411.917 529.159 412.417 530.568 413.341C531.977 414.25 533.03 415.538 533.727 417.205C534.424 418.871 534.583 420.848 534.205 423.136C533.795 425.606 532.818 427.811 531.273 429.75C529.727 431.674 527.667 433.197 525.091 434.318C522.53 435.439 519.508 436 516.023 436H496.136ZM507.341 427.955H515.364C518.091 427.955 520.174 427.424 521.614 426.364C523.053 425.303 523.917 423.902 524.205 422.159C524.402 420.871 524.273 419.735 523.818 418.75C523.379 417.765 522.629 416.992 521.568 416.432C520.523 415.871 519.197 415.591 517.591 415.591H509.364L507.341 427.955ZM510.5 408.932H517.795C519.129 408.932 520.364 408.697 521.5 408.227C522.652 407.742 523.598 407.061 524.341 406.182C525.098 405.288 525.576 404.235 525.773 403.023C526.045 401.326 525.667 399.97 524.636 398.955C523.621 397.924 522.03 397.409 519.864 397.409H512.409L510.5 408.932ZM538.267 436L544.085 401.091H553.767L547.949 436H538.267ZM549.926 396.545C548.487 396.545 547.297 396.068 546.358 395.114C545.434 394.144 545.055 392.992 545.222 391.659C545.388 390.295 546.04 389.144 547.176 388.205C548.313 387.25 549.6 386.773 551.04 386.773C552.479 386.773 553.653 387.25 554.562 388.205C555.472 389.144 555.85 390.295 555.699 391.659C555.547 392.992 554.903 394.144 553.767 395.114C552.646 396.068 551.366 396.545 549.926 396.545ZM571.523 436.682C567.947 436.682 564.985 435.955 562.636 434.5C560.288 433.03 558.636 430.955 557.682 428.273C556.742 425.576 556.583 422.386 557.205 418.705C557.811 415.114 559.03 411.962 560.864 409.25C562.712 406.538 565.03 404.424 567.818 402.909C570.606 401.394 573.712 400.636 577.136 400.636C579.439 400.636 581.523 401.008 583.386 401.75C585.265 402.477 586.826 403.583 588.068 405.068C589.311 406.538 590.159 408.379 590.614 410.591C591.083 412.803 591.076 415.394 590.591 418.364L590.159 421.023H560.705L561.636 415.023H582C582.227 413.629 582.136 412.394 581.727 411.318C581.318 410.242 580.636 409.402 579.682 408.795C578.727 408.174 577.553 407.864 576.159 407.864C574.735 407.864 573.402 408.212 572.159 408.909C570.917 409.606 569.871 410.523 569.023 411.659C568.189 412.78 567.652 414 567.409 415.318L566.341 421.273C566.038 423.106 566.098 424.629 566.523 425.841C566.962 427.053 567.72 427.962 568.795 428.568C569.871 429.159 571.235 429.455 572.886 429.455C573.962 429.455 574.97 429.303 575.909 429C576.864 428.697 577.712 428.25 578.455 427.659C579.197 427.053 579.803 426.303 580.273 425.409L589.114 426C588.295 428.152 587.053 430.03 585.386 431.636C583.72 433.227 581.712 434.47 579.364 435.364C577.03 436.242 574.417 436.682 571.523 436.682ZM607.108 415.818L603.744 436H594.085L599.903 401.091H609.108L608.108 407.25H608.494C609.6 405.205 611.161 403.591 613.176 402.409C615.206 401.227 617.517 400.636 620.108 400.636C622.532 400.636 624.555 401.167 626.176 402.227C627.813 403.288 628.964 404.795 629.631 406.75C630.313 408.705 630.426 411.045 629.972 413.773L626.244 436H616.562L619.994 415.5C620.343 413.364 620.07 411.697 619.176 410.5C618.297 409.288 616.881 408.682 614.926 408.682C613.623 408.682 612.426 408.962 611.335 409.523C610.244 410.083 609.328 410.902 608.585 411.977C607.858 413.038 607.366 414.318 607.108 415.818ZM670.943 401.091L652.92 436H642.011L635.625 401.091H645.489L648.58 426.068H648.943L660.33 401.091H670.943ZM684.773 436.682C681.197 436.682 678.235 435.955 675.886 434.5C673.538 433.03 671.886 430.955 670.932 428.273C669.992 425.576 669.833 422.386 670.455 418.705C671.061 415.114 672.28 411.962 674.114 409.25C675.962 406.538 678.28 404.424 681.068 402.909C683.856 401.394 686.962 400.636 690.386 400.636C692.689 400.636 694.773 401.008 696.636 401.75C698.515 402.477 700.076 403.583 701.318 405.068C702.561 406.538 703.409 408.379 703.864 410.591C704.333 412.803 704.326 415.394 703.841 418.364L703.409 421.023H673.955L674.886 415.023H695.25C695.477 413.629 695.386 412.394 694.977 411.318C694.568 410.242 693.886 409.402 692.932 408.795C691.977 408.174 690.803 407.864 689.409 407.864C687.985 407.864 686.652 408.212 685.409 408.909C684.167 409.606 683.121 410.523 682.273 411.659C681.439 412.78 680.902 414 680.659 415.318L679.591 421.273C679.288 423.106 679.348 424.629 679.773 425.841C680.212 427.053 680.97 427.962 682.045 428.568C683.121 429.159 684.485 429.455 686.136 429.455C687.212 429.455 688.22 429.303 689.159 429C690.114 428.697 690.962 428.25 691.705 427.659C692.447 427.053 693.053 426.303 693.523 425.409L702.364 426C701.545 428.152 700.303 430.03 698.636 431.636C696.97 433.227 694.962 434.47 692.614 435.364C690.28 436.242 687.667 436.682 684.773 436.682ZM720.358 415.818L716.994 436H707.335L713.153 401.091H722.358L721.358 407.25H721.744C722.85 405.205 724.411 403.591 726.426 402.409C728.456 401.227 730.767 400.636 733.358 400.636C735.782 400.636 737.805 401.167 739.426 402.227C741.063 403.288 742.214 404.795 742.881 406.75C743.563 408.705 743.676 411.045 743.222 413.773L739.494 436H729.812L733.244 415.5C733.593 413.364 733.32 411.697 732.426 410.5C731.547 409.288 730.131 408.682 728.176 408.682C726.873 408.682 725.676 408.962 724.585 409.523C723.494 410.083 722.578 410.902 721.835 411.977C721.108 413.038 720.616 414.318 720.358 415.818ZM747.08 436L752.898 401.091H762.58L756.761 436H747.08ZM758.739 396.545C757.299 396.545 756.11 396.068 755.17 395.114C754.246 394.144 753.867 392.992 754.034 391.659C754.201 390.295 754.852 389.144 755.989 388.205C757.125 387.25 758.413 386.773 759.852 386.773C761.292 386.773 762.466 387.25 763.375 388.205C764.284 389.144 764.663 390.295 764.511 391.659C764.36 392.992 763.716 394.144 762.58 395.114C761.458 396.068 760.178 396.545 758.739 396.545ZM777.335 436.568C774.669 436.568 772.373 435.886 770.449 434.523C768.54 433.144 767.176 431.121 766.358 428.455C765.555 425.773 765.479 422.485 766.131 418.591C766.797 414.591 767.994 411.265 769.722 408.614C771.449 405.947 773.494 403.955 775.858 402.636C778.222 401.303 780.684 400.636 783.244 400.636C785.184 400.636 786.752 400.97 787.949 401.636C789.161 402.288 790.093 403.106 790.744 404.091C791.396 405.061 791.85 406.015 792.108 406.955H792.403L795.335 389.455H804.994L797.267 436H787.722L788.653 430.409H788.244C787.638 431.379 786.835 432.341 785.835 433.295C784.85 434.235 783.653 435.015 782.244 435.636C780.85 436.258 779.214 436.568 777.335 436.568ZM781.608 428.864C783.153 428.864 784.547 428.439 785.79 427.591C787.032 426.727 788.078 425.523 788.926 423.977C789.775 422.432 790.366 420.621 790.699 418.545C791.047 416.47 791.055 414.667 790.722 413.136C790.388 411.606 789.737 410.424 788.767 409.591C787.813 408.758 786.547 408.341 784.972 408.341C783.381 408.341 781.972 408.773 780.744 409.636C779.532 410.5 778.525 411.697 777.722 413.227C776.934 414.758 776.373 416.53 776.04 418.545C775.706 420.576 775.684 422.371 775.972 423.932C776.259 425.477 776.873 426.689 777.812 427.568C778.752 428.432 780.017 428.864 781.608 428.864ZM821.023 436.682C817.462 436.682 814.515 435.924 812.182 434.409C809.848 432.879 808.205 430.758 807.25 428.045C806.311 425.318 806.136 422.144 806.727 418.523C807.303 414.947 808.5 411.818 810.318 409.136C812.136 406.455 814.447 404.371 817.25 402.886C820.053 401.386 823.212 400.636 826.727 400.636C830.273 400.636 833.212 401.402 835.545 402.932C837.879 404.447 839.523 406.568 840.477 409.295C841.432 412.023 841.614 415.197 841.023 418.818C840.432 422.379 839.22 425.5 837.386 428.182C835.553 430.864 833.242 432.955 830.455 434.455C827.667 435.939 824.523 436.682 821.023 436.682ZM821.977 429.182C823.614 429.182 825.061 428.72 826.318 427.795C827.591 426.856 828.644 425.583 829.477 423.977C830.326 422.356 830.917 420.523 831.25 418.477C831.583 416.462 831.606 414.674 831.318 413.114C831.03 411.538 830.424 410.295 829.5 409.386C828.591 408.477 827.341 408.023 825.75 408.023C824.114 408.023 822.659 408.492 821.386 409.432C820.114 410.356 819.061 411.629 818.227 413.25C817.394 414.871 816.811 416.712 816.477 418.773C816.159 420.773 816.136 422.561 816.409 424.136C816.682 425.697 817.28 426.932 818.205 427.841C819.129 428.735 820.386 429.182 821.977 429.182ZM869.131 436.659C866.919 436.659 865.002 436.273 863.381 435.5C861.775 434.712 860.593 433.545 859.835 432C859.078 430.455 858.888 428.538 859.267 426.25C859.6 424.311 860.229 422.689 861.153 421.386C862.093 420.068 863.237 419.008 864.585 418.205C865.934 417.402 867.426 416.788 869.062 416.364C870.714 415.939 872.419 415.652 874.176 415.5C876.206 415.288 877.858 415.083 879.131 414.886C880.419 414.689 881.381 414.409 882.017 414.045C882.653 413.667 883.04 413.106 883.176 412.364V412.227C883.403 410.803 883.138 409.697 882.381 408.909C881.638 408.106 880.449 407.705 878.812 407.705C877.085 407.705 875.616 408.083 874.403 408.841C873.206 409.598 872.35 410.561 871.835 411.727L863.017 411C863.805 408.879 864.994 407.045 866.585 405.5C868.191 403.939 870.123 402.742 872.381 401.909C874.638 401.061 877.169 400.636 879.972 400.636C881.911 400.636 883.722 400.864 885.403 401.318C887.1 401.773 888.563 402.477 889.79 403.432C891.032 404.386 891.926 405.614 892.472 407.114C893.032 408.598 893.146 410.379 892.812 412.455L888.881 436H879.699L880.517 431.159H880.244C879.502 432.25 878.593 433.212 877.517 434.045C876.441 434.864 875.206 435.508 873.812 435.977C872.419 436.432 870.858 436.659 869.131 436.659ZM873.017 429.977C874.426 429.977 875.722 429.697 876.903 429.136C878.1 428.561 879.085 427.788 879.858 426.818C880.646 425.848 881.146 424.75 881.358 423.523L881.949 419.818C881.646 420.015 881.206 420.189 880.631 420.341C880.07 420.492 879.456 420.636 878.79 420.773C878.138 420.894 877.479 421.008 876.812 421.114C876.146 421.205 875.547 421.295 875.017 421.386C873.85 421.553 872.805 421.818 871.881 422.182C870.956 422.545 870.206 423.038 869.631 423.659C869.055 424.265 868.699 425.023 868.562 425.932C868.35 427.25 868.661 428.258 869.494 428.955C870.343 429.636 871.517 429.977 873.017 429.977ZM496.136 513L503.864 466.455H534.682L533.318 474.568H512.341L510.523 485.659H529.455L528.091 493.773H509.159L505.977 513H496.136ZM533.392 513L539.21 478.091H548.892L543.074 513H533.392ZM545.051 473.545C543.612 473.545 542.422 473.068 541.483 472.114C540.559 471.144 540.18 469.992 540.347 468.659C540.513 467.295 541.165 466.144 542.301 465.205C543.438 464.25 544.725 463.773 546.165 463.773C547.604 463.773 548.778 464.25 549.688 465.205C550.597 466.144 550.975 467.295 550.824 468.659C550.672 469.992 550.028 471.144 548.892 472.114C547.771 473.068 546.491 473.545 545.051 473.545ZM564.375 526.818C561.223 526.818 558.595 526.386 556.489 525.523C554.398 524.674 552.807 523.515 551.716 522.045C550.64 520.576 550.049 518.924 549.943 517.091L559.125 515.886C559.292 516.598 559.61 517.258 560.08 517.864C560.564 518.47 561.254 518.955 562.148 519.318C563.057 519.682 564.231 519.864 565.67 519.864C567.777 519.864 569.61 519.348 571.17 518.318C572.731 517.303 573.693 515.598 574.057 513.205L575.102 506.818H574.693C574.117 507.788 573.33 508.705 572.33 509.568C571.345 510.432 570.14 511.136 568.716 511.682C567.307 512.227 565.678 512.5 563.83 512.5C561.193 512.5 558.905 511.894 556.966 510.682C555.042 509.455 553.648 507.583 552.784 505.068C551.936 502.538 551.83 499.341 552.466 495.477C553.133 491.523 554.33 488.22 556.057 485.568C557.784 482.917 559.83 480.932 562.193 479.614C564.557 478.295 567.019 477.636 569.58 477.636C571.534 477.636 573.11 477.97 574.307 478.636C575.519 479.288 576.451 480.106 577.102 481.091C577.754 482.061 578.216 483.015 578.489 483.955H578.875L579.83 478.091H589.443L583.58 513.341C583.11 516.326 581.981 518.811 580.193 520.795C578.42 522.795 576.17 524.295 573.443 525.295C570.716 526.311 567.693 526.818 564.375 526.818ZM568.011 505.227C569.557 505.227 570.943 504.841 572.17 504.068C573.413 503.28 574.451 502.159 575.284 500.705C576.117 499.235 576.701 497.477 577.034 495.432C577.367 493.386 577.36 491.614 577.011 490.114C576.678 488.598 576.027 487.424 575.057 486.591C574.102 485.758 572.845 485.341 571.284 485.341C569.678 485.341 568.269 485.773 567.057 486.636C565.845 487.485 564.837 488.667 564.034 490.182C563.246 491.697 562.693 493.447 562.375 495.432C562.042 497.447 562.027 499.189 562.33 500.659C562.648 502.114 563.277 503.242 564.216 504.045C565.155 504.833 566.42 505.227 568.011 505.227ZM591.398 513L597.216 478.091H606.42L605.42 484.25H605.807C606.867 482.205 608.345 480.591 610.239 479.409C612.148 478.227 614.292 477.636 616.67 477.636C619.034 477.636 620.958 478.235 622.443 479.432C623.943 480.614 624.807 482.22 625.034 484.25H625.398C626.428 482.25 627.981 480.652 630.057 479.455C632.133 478.242 634.451 477.636 637.011 477.636C640.239 477.636 642.708 478.674 644.42 480.75C646.133 482.826 646.67 485.75 646.034 489.523L642.125 513H632.443L636.08 491.432C636.367 489.477 636.08 488.023 635.216 487.068C634.352 486.098 633.148 485.614 631.602 485.614C629.845 485.614 628.383 486.174 627.216 487.295C626.049 488.402 625.33 489.864 625.057 491.682L621.443 513H612.057L615.739 491.227C615.996 489.5 615.716 488.136 614.898 487.136C614.095 486.121 612.89 485.614 611.284 485.614C610.223 485.614 609.216 485.886 608.261 486.432C607.322 486.962 606.527 487.712 605.875 488.682C605.223 489.636 604.799 490.758 604.602 492.045L601.057 513H591.398ZM659.568 513.659C657.356 513.659 655.439 513.273 653.818 512.5C652.212 511.712 651.03 510.545 650.273 509C649.515 507.455 649.326 505.538 649.705 503.25C650.038 501.311 650.667 499.689 651.591 498.386C652.53 497.068 653.674 496.008 655.023 495.205C656.371 494.402 657.864 493.788 659.5 493.364C661.152 492.939 662.856 492.652 664.614 492.5C666.644 492.288 668.295 492.083 669.568 491.886C670.856 491.689 671.818 491.409 672.455 491.045C673.091 490.667 673.477 490.106 673.614 489.364V489.227C673.841 487.803 673.576 486.697 672.818 485.909C672.076 485.106 670.886 484.705 669.25 484.705C667.523 484.705 666.053 485.083 664.841 485.841C663.644 486.598 662.788 487.561 662.273 488.727L653.455 488C654.242 485.879 655.432 484.045 657.023 482.5C658.629 480.939 660.561 479.742 662.818 478.909C665.076 478.061 667.606 477.636 670.409 477.636C672.348 477.636 674.159 477.864 675.841 478.318C677.538 478.773 679 479.477 680.227 480.432C681.47 481.386 682.364 482.614 682.909 484.114C683.47 485.598 683.583 487.379 683.25 489.455L679.318 513H670.136L670.955 508.159H670.682C669.939 509.25 669.03 510.212 667.955 511.045C666.879 511.864 665.644 512.508 664.25 512.977C662.856 513.432 661.295 513.659 659.568 513.659ZM663.455 506.977C664.864 506.977 666.159 506.697 667.341 506.136C668.538 505.561 669.523 504.788 670.295 503.818C671.083 502.848 671.583 501.75 671.795 500.523L672.386 496.818C672.083 497.015 671.644 497.189 671.068 497.341C670.508 497.492 669.894 497.636 669.227 497.773C668.576 497.894 667.917 498.008 667.25 498.114C666.583 498.205 665.985 498.295 665.455 498.386C664.288 498.553 663.242 498.818 662.318 499.182C661.394 499.545 660.644 500.038 660.068 500.659C659.492 501.265 659.136 502.023 659 502.932C658.788 504.25 659.098 505.258 659.932 505.955C660.78 506.636 661.955 506.977 663.455 506.977Z" fill="white" fill-opacity="0.666667"/>
</g>
<defs>
<clipPath id="clip0_2_8">
<rect width="1440" height="1024" fill="white"/>
</clipPath>
</defs>
</svg>
