<svg width="1440" height="1024" viewBox="0 0 1440 1024" fill="none" xmlns="http://www.w3.org/2000/svg">
<rect width="1440" height="1024" fill="#F5F5F5"/>
<rect width="1440" height="1024" fill="#237EB1" fill-opacity="0.33"/>
<rect x="389" y="226" width="662" height="472" rx="236" fill="#D92424"/>
<path d="M543.343 474.048C543.151 474.112 542.991 474.144 542.863 474.144C542.703 474.144 542.527 474.096 542.335 474C541.503 472.72 540.847 471.632 540.367 470.736C539.919 469.808 539.167 468.208 538.111 465.936C536.959 463.248 535.487 459.456 533.695 454.56C531.903 449.664 531.007 446.672 531.007 445.584C531.007 445.296 531.071 445.088 531.199 444.96C531.327 444.8 531.487 444.72 531.679 444.72C531.839 444.72 531.967 444.752 532.063 444.816C532.447 445.04 533.055 446.16 533.887 448.176C534.751 450.16 535.935 453.136 537.439 457.104C539.903 463.632 541.855 468.464 543.295 471.6C543.999 470.928 544.991 468.944 546.271 465.648C547.551 462.32 548.719 458.64 549.775 454.608C550.863 450.576 551.503 447.152 551.695 444.336C553.103 444.24 553.807 444.8 553.807 446.016C553.807 448.064 553.231 451.264 552.079 455.616C550.927 459.968 549.535 463.984 547.903 467.664C546.271 471.312 544.751 473.44 543.343 474.048ZM561.128 474.048C560.392 474.048 559.8 472.976 559.352 470.832C558.904 468.656 558.616 466.784 558.488 465.216C558.36 463.648 558.184 461.168 557.96 457.776C557.928 457.232 557.912 456.528 557.912 455.664C557.912 454.576 557.992 453.824 558.152 453.408C558.344 452.992 558.648 452.784 559.064 452.784C559.416 452.784 559.688 452.864 559.88 453.024C560.104 453.152 560.296 453.376 560.456 453.696L560.408 455.616C560.408 457.664 560.504 459.6 560.696 461.424C560.92 463.248 561.256 465.696 561.704 468.768C561.96 470.112 562.136 471.216 562.232 472.08C562.296 472.528 562.216 472.976 561.992 473.424C561.768 473.84 561.48 474.048 561.128 474.048ZM559.928 447.648C559.224 447.648 558.696 447.376 558.344 446.832C558.024 446.288 557.864 445.616 557.864 444.816C557.864 444.464 557.88 444.208 557.912 444.048C557.88 443.536 558.168 443.28 558.776 443.28C559.224 443.28 559.672 443.392 560.12 443.616C560.6 443.808 560.744 443.952 560.552 444.048C560.872 444.88 561.032 445.536 561.032 446.016C561.032 446.432 560.936 446.768 560.744 447.024C560.552 447.248 560.28 447.456 559.928 447.648ZM577.865 474C575.817 474 573.929 473.6 572.201 472.8C570.473 472 569.097 470.864 568.073 469.392C567.049 467.92 566.537 466.224 566.537 464.304C566.537 462.16 566.937 460.16 567.737 458.304C568.537 456.416 569.705 454.912 571.241 453.792C572.809 452.64 574.633 452.064 576.713 452.064C578.889 452.064 580.537 452.768 581.657 454.176C582.777 455.552 583.305 457.296 583.241 459.408C583.241 461.296 582.489 462.736 580.985 463.728C579.513 464.72 577.625 465.216 575.321 465.216C574.969 465.216 574.441 465.184 573.737 465.12C572.585 464.992 571.769 464.816 571.289 464.592C570.809 464.368 570.569 463.92 570.569 463.248C570.569 463.024 570.633 462.864 570.761 462.768C570.889 462.64 571.145 462.576 571.529 462.576C571.945 462.576 572.681 462.672 573.737 462.864C574.761 463.056 575.673 463.152 576.473 463.152C579.417 463.152 580.889 461.872 580.889 459.312C580.889 457.776 580.601 456.56 580.025 455.664C579.481 454.768 578.505 454.32 577.097 454.32C575.561 454.32 574.185 454.736 572.969 455.568C571.753 456.368 570.809 457.424 570.137 458.736C569.497 460.048 569.177 461.44 569.177 462.912C569.177 465.44 569.881 467.52 571.289 469.152C572.697 470.752 574.873 471.552 577.817 471.552C578.169 471.552 578.761 471.52 579.593 471.456C579.945 471.424 580.377 471.328 580.889 471.168C581.401 471.008 581.769 470.896 581.993 470.832C583.369 470.352 584.377 470.112 585.017 470.112C585.497 470.112 585.865 470.24 586.121 470.496C585.321 471.712 584.121 472.608 582.521 473.184C580.953 473.728 579.401 474 577.865 474ZM592.613 474.192C592.165 474.32 591.909 474.384 591.845 474.384C591.589 474.384 591.317 474.256 591.029 474C589.973 472.432 589.205 469.696 588.725 465.792C588.277 461.888 588.053 458.528 588.053 455.712C588.053 455.264 588.373 455.04 589.013 455.04C589.973 455.04 590.453 455.568 590.453 456.624C590.453 456.912 590.437 457.152 590.405 457.344C590.693 456.672 591.237 455.984 592.037 455.28C592.837 454.576 593.765 453.984 594.821 453.504C595.877 453.024 596.949 452.784 598.037 452.784C601.461 452.784 603.957 454.304 605.525 457.344C607.093 460.352 607.877 464.096 607.877 468.576C607.877 470.112 607.717 471.344 607.397 472.272C607.077 473.168 606.645 473.616 606.101 473.616C605.525 473.616 605.237 473.44 605.237 473.088C605.461 471.392 605.573 469.728 605.573 468.096C605.573 463.968 604.853 460.848 603.413 458.736C601.973 456.592 600.069 455.52 597.701 455.52C596.549 455.52 595.429 455.808 594.341 456.384C593.285 456.96 592.421 457.76 591.749 458.784C591.109 459.808 590.789 460.976 590.789 462.288C590.789 463.76 590.869 465.04 591.029 466.128C591.189 467.216 591.445 468.528 591.797 470.064C592.181 471.568 592.453 472.944 592.613 474.192ZM619.981 474.048C619.053 474.048 617.837 472.672 616.333 469.92C614.861 467.136 613.149 463.616 611.197 459.36L609.805 456.384C609.805 456.064 609.997 455.76 610.381 455.472C610.765 455.152 611.341 455.008 612.109 455.04C612.301 455.392 612.909 456.688 613.933 458.928C615.149 461.552 616.173 463.712 617.005 465.408C617.869 467.072 618.909 468.864 620.125 470.784C620.669 468.8 621.277 466.944 621.949 465.216C622.653 463.456 623.693 460.976 625.069 457.776L625.789 456.096C625.981 455.712 626.349 455.52 626.893 455.52C627.277 455.52 627.613 455.616 627.901 455.808C628.189 456 628.333 456.272 628.333 456.624C628.333 456.944 628.173 457.28 627.853 457.632C627.629 457.856 627.309 458.512 626.893 459.6C626.477 460.656 626.045 461.84 625.597 463.152C624.381 466.608 623.325 469.312 622.429 471.264C621.533 473.184 620.717 474.112 619.981 474.048ZM643.021 474C640.973 474 639.085 473.6 637.357 472.8C635.629 472 634.253 470.864 633.229 469.392C632.205 467.92 631.693 466.224 631.693 464.304C631.693 462.16 632.093 460.16 632.893 458.304C633.693 456.416 634.861 454.912 636.397 453.792C637.965 452.64 639.789 452.064 641.869 452.064C644.045 452.064 645.693 452.768 646.813 454.176C647.933 455.552 648.461 457.296 648.397 459.408C648.397 461.296 647.645 462.736 646.141 463.728C644.669 464.72 642.781 465.216 640.477 465.216C640.125 465.216 639.597 465.184 638.893 465.12C637.741 464.992 636.925 464.816 636.445 464.592C635.965 464.368 635.725 463.92 635.725 463.248C635.725 463.024 635.789 462.864 635.917 462.768C636.045 462.64 636.301 462.576 636.685 462.576C637.101 462.576 637.837 462.672 638.893 462.864C639.917 463.056 640.829 463.152 641.629 463.152C644.573 463.152 646.045 461.872 646.045 459.312C646.045 457.776 645.757 456.56 645.181 455.664C644.637 454.768 643.661 454.32 642.253 454.32C640.717 454.32 639.341 454.736 638.125 455.568C636.909 456.368 635.965 457.424 635.293 458.736C634.653 460.048 634.333 461.44 634.333 462.912C634.333 465.44 635.037 467.52 636.445 469.152C637.853 470.752 640.029 471.552 642.973 471.552C643.325 471.552 643.917 471.52 644.749 471.456C645.101 471.424 645.533 471.328 646.045 471.168C646.557 471.008 646.925 470.896 647.149 470.832C648.525 470.352 649.533 470.112 650.173 470.112C650.653 470.112 651.021 470.24 651.277 470.496C650.477 471.712 649.277 472.608 647.677 473.184C646.109 473.728 644.557 474 643.021 474ZM657.769 474.192C657.321 474.32 657.065 474.384 657.001 474.384C656.745 474.384 656.473 474.256 656.185 474C655.129 472.432 654.361 469.696 653.881 465.792C653.433 461.888 653.209 458.528 653.209 455.712C653.209 455.264 653.529 455.04 654.169 455.04C655.129 455.04 655.609 455.568 655.609 456.624C655.609 456.912 655.593 457.152 655.561 457.344C655.849 456.672 656.393 455.984 657.193 455.28C657.993 454.576 658.921 453.984 659.977 453.504C661.033 453.024 662.105 452.784 663.193 452.784C666.617 452.784 669.113 454.304 670.681 457.344C672.249 460.352 673.033 464.096 673.033 468.576C673.033 470.112 672.873 471.344 672.553 472.272C672.233 473.168 671.801 473.616 671.257 473.616C670.681 473.616 670.393 473.44 670.393 473.088C670.617 471.392 670.729 469.728 670.729 468.096C670.729 463.968 670.009 460.848 668.569 458.736C667.129 456.592 665.225 455.52 662.857 455.52C661.705 455.52 660.585 455.808 659.497 456.384C658.441 456.96 657.577 457.76 656.905 458.784C656.265 459.808 655.945 460.976 655.945 462.288C655.945 463.76 656.025 465.04 656.185 466.128C656.345 467.216 656.601 468.528 656.953 470.064C657.337 471.568 657.609 472.944 657.769 474.192ZM680.097 474.048C679.361 474.048 678.769 472.976 678.321 470.832C677.873 468.656 677.585 466.784 677.457 465.216C677.329 463.648 677.153 461.168 676.929 457.776C676.897 457.232 676.881 456.528 676.881 455.664C676.881 454.576 676.961 453.824 677.121 453.408C677.313 452.992 677.617 452.784 678.033 452.784C678.385 452.784 678.657 452.864 678.849 453.024C679.073 453.152 679.265 453.376 679.425 453.696L679.377 455.616C679.377 457.664 679.473 459.6 679.665 461.424C679.889 463.248 680.225 465.696 680.673 468.768C680.929 470.112 681.105 471.216 681.201 472.08C681.265 472.528 681.185 472.976 680.961 473.424C680.737 473.84 680.449 474.048 680.097 474.048ZM678.897 447.648C678.193 447.648 677.665 447.376 677.313 446.832C676.993 446.288 676.833 445.616 676.833 444.816C676.833 444.464 676.849 444.208 676.881 444.048C676.849 443.536 677.137 443.28 677.745 443.28C678.193 443.28 678.641 443.392 679.089 443.616C679.569 443.808 679.713 443.952 679.521 444.048C679.841 444.88 680.001 445.536 680.001 446.016C680.001 446.432 679.905 446.768 679.713 447.024C679.521 447.248 679.249 447.456 678.897 447.648ZM693.714 473.952C692.21 473.952 690.898 473.44 689.778 472.416C688.69 471.392 687.858 470.064 687.282 468.432C686.738 466.8 686.466 465.104 686.466 463.344C686.466 460.272 687.106 457.68 688.386 455.568C689.698 453.456 691.682 452.4 694.338 452.4C695.938 452.4 697.33 452.688 698.514 453.264C699.73 453.808 701.314 454.736 703.266 456.048L704.514 456.912C704.354 455.856 704.114 454.64 703.794 453.264C703.474 451.888 703.266 450.944 703.17 450.432C702.626 447.936 702.226 446.08 701.97 444.864C701.746 443.616 701.634 442.512 701.634 441.552C701.634 439.856 702.114 439.008 703.074 439.008C703.426 439.776 703.842 441.424 704.322 443.952C704.802 446.448 705.41 449.872 706.146 454.224C706.914 458.832 707.586 462.592 708.162 465.504C708.738 468.416 709.218 470.24 709.602 470.976C709.602 471.712 709.058 472.08 707.97 472.08C707.138 472.08 706.562 471.6 706.242 470.64C705.954 469.68 705.778 468 705.714 465.6H705.33C703.986 468.032 702.242 470.032 700.098 471.6C697.954 473.168 695.826 473.952 693.714 473.952ZM694.338 471.6C695.65 471.6 697.058 471.056 698.562 469.968C700.098 468.848 701.394 467.504 702.45 465.936C703.506 464.336 704.034 462.896 704.034 461.616V460.176C700.738 456.72 697.698 454.992 694.914 454.992C692.962 454.992 691.458 455.712 690.402 457.152C689.346 458.56 688.818 460.416 688.818 462.72L688.866 463.728C689.058 466.16 689.602 468.08 690.498 469.488C691.394 470.896 692.674 471.6 694.338 471.6ZM722.395 474.048C720.507 474.048 718.795 473.632 717.259 472.8C715.755 471.936 714.571 470.752 713.707 469.248C712.875 467.712 712.459 465.968 712.459 464.016C712.459 460.816 713.627 458.432 715.963 456.864C718.331 455.296 721.227 454.512 724.651 454.512C726.219 454.512 727.675 454.896 729.019 455.664C730.395 456.432 731.499 457.536 732.331 458.976C733.163 460.416 733.579 462.08 733.579 463.968C733.579 466.016 733.051 467.808 731.995 469.344C730.939 470.848 729.547 472.016 727.819 472.848C726.123 473.648 724.315 474.048 722.395 474.048ZM721.867 471.312C724.843 471.312 727.099 470.64 728.635 469.296C730.171 467.952 730.939 465.984 730.939 463.392C730.939 461.632 730.331 460.112 729.115 458.832C727.931 457.552 726.267 456.912 724.123 456.912C722.683 456.912 721.227 457.184 719.755 457.728C718.283 458.272 717.067 459.088 716.107 460.176C715.147 461.264 714.667 462.576 714.667 464.112C714.667 465.392 714.987 466.592 715.627 467.712C716.267 468.8 717.131 469.68 718.219 470.352C719.339 470.992 720.555 471.312 721.867 471.312ZM761.733 474C758.405 474 755.509 473.424 753.045 472.272C750.613 471.088 749.397 469.024 749.397 466.08C749.397 465.024 749.717 464 750.357 463.008C750.997 462.016 751.941 461.216 753.189 460.608C754.437 459.968 755.957 459.648 757.749 459.648C759.125 459.648 760.293 459.712 761.253 459.84C762.213 459.968 763.317 460.32 764.565 460.896C765.813 461.472 767.109 462.384 768.453 463.632C767.941 461.424 767.173 459.488 766.149 457.824C765.125 456.16 763.973 454.88 762.693 453.984C761.445 453.056 760.213 452.592 758.997 452.592C758.421 452.592 757.877 452.704 757.365 452.928C756.885 453.12 756.293 453.408 755.589 453.792C754.789 454.304 754.197 454.56 753.813 454.56C753.653 454.56 753.509 454.512 753.381 454.416C753.285 454.288 753.237 454.144 753.237 453.984C753.237 452.704 753.797 451.712 754.917 451.008C756.069 450.304 757.461 449.984 759.093 450.048C761.333 450.176 763.381 451.136 765.237 452.928C767.093 454.688 768.549 456.88 769.605 459.504C770.693 462.128 771.237 464.704 771.237 467.232C771.237 467.648 771.205 468.24 771.141 469.008L769.605 468.912C768.389 466.448 766.821 464.704 764.901 463.68C763.013 462.624 761.109 462.096 759.189 462.096C756.725 462.096 754.965 462.464 753.909 463.2C752.853 463.936 752.325 465.008 752.325 466.416C752.325 467.888 753.061 469.072 754.533 469.968C756.005 470.864 757.893 471.312 760.197 471.312C761.477 471.312 762.501 471.248 763.269 471.12C764.037 470.96 764.837 470.752 765.669 470.496C766.341 470.272 766.933 470.112 767.445 470.016C767.957 469.92 768.613 469.872 769.413 469.872C770.309 469.872 770.869 469.936 771.093 470.064C771.349 470.192 771.477 470.48 771.477 470.928C771.477 471.248 770.821 471.648 769.509 472.128C768.197 472.608 766.725 473.04 765.093 473.424C763.461 473.808 762.341 474 761.733 474ZM797.59 473.424C797.078 473.36 796.598 473.328 796.15 473.328C795.734 473.296 795.446 473.28 795.286 473.28C795.158 473.248 795.094 473.184 795.094 473.088C794.87 472.064 794.71 471.168 794.614 470.4C794.518 469.6 794.454 468.864 794.422 468.192C794.39 467.232 794.31 466.288 794.182 465.36C794.086 464.4 793.862 463.136 793.51 461.568C791.718 461.856 790.518 462 789.91 462C789.27 462 788.79 461.888 788.47 461.664C788.15 461.408 787.99 461.008 787.99 460.464C787.99 460.144 788.166 459.984 788.518 459.984L789.958 459.84C790.182 459.808 791.206 459.68 793.03 459.456C792.966 458.528 792.838 456.624 792.646 453.744C792.55 451.44 792.406 449.6 792.214 448.224L786.214 448.752C785.766 449.04 785.414 449.184 785.158 449.184C784.774 448.896 784.534 448.528 784.438 448.08C785.206 447.248 787.046 446.56 789.958 446.016C792.902 445.472 796.086 445.2 799.51 445.2C803.798 445.2 807.478 445.664 810.55 446.592C813.622 447.488 815.286 448.88 815.542 450.768C814.55 450.768 813.59 450.656 812.662 450.432C811.734 450.208 810.566 449.872 809.158 449.424C807.366 448.816 805.718 448.352 804.214 448.032C802.742 447.712 801.078 447.552 799.222 447.552C798.038 447.552 796.742 447.648 795.334 447.84C795.334 450.816 795.414 454.576 795.574 459.12L797.254 458.976C802.374 458.56 805.366 458.352 806.23 458.352C806.646 458.352 806.934 458.384 807.094 458.448C807.254 458.48 807.382 458.544 807.478 458.64C807.51 459.6 806.598 460.288 804.742 460.704C802.886 461.088 799.942 461.36 795.91 461.52C796.07 463.088 796.374 465.136 796.822 467.664C797.238 470.032 797.494 471.952 797.59 473.424ZM821.659 474.048C820.923 474.048 820.331 472.976 819.883 470.832C819.435 468.656 819.147 466.784 819.019 465.216C818.891 463.648 818.715 461.168 818.491 457.776C818.459 457.232 818.443 456.528 818.443 455.664C818.443 454.576 818.523 453.824 818.683 453.408C818.875 452.992 819.179 452.784 819.595 452.784C819.947 452.784 820.219 452.864 820.411 453.024C820.635 453.152 820.827 453.376 820.987 453.696L820.939 455.616C820.939 457.664 821.035 459.6 821.227 461.424C821.451 463.248 821.787 465.696 822.235 468.768C822.491 470.112 822.667 471.216 822.763 472.08C822.827 472.528 822.747 472.976 822.523 473.424C822.299 473.84 822.011 474.048 821.659 474.048ZM820.459 447.648C819.755 447.648 819.227 447.376 818.875 446.832C818.555 446.288 818.395 445.616 818.395 444.816C818.395 444.464 818.411 444.208 818.443 444.048C818.411 443.536 818.699 443.28 819.307 443.28C819.755 443.28 820.203 443.392 820.651 443.616C821.131 443.808 821.275 443.952 821.083 444.048C821.403 444.88 821.563 445.536 821.563 446.016C821.563 446.432 821.467 446.768 821.275 447.024C821.083 447.248 820.811 447.456 820.459 447.648ZM835.132 497.424C832.444 497.424 830.188 496.656 828.364 495.12C826.572 493.616 825.5 491.072 825.148 487.488C825.116 486.944 825.196 486.528 825.388 486.24C825.612 485.952 825.9 485.808 826.252 485.808C826.636 485.808 826.972 485.952 827.26 486.24C827.548 486.56 827.676 486.976 827.644 487.488C827.644 489.6 828.364 491.264 829.804 492.48C831.276 493.728 833.148 494.352 835.42 494.352C836.732 494.352 837.884 493.872 838.876 492.912C839.9 491.952 840.684 490.608 841.228 488.88C841.772 487.184 842.044 485.232 842.044 483.024C842.044 479.152 842.092 475.392 842.188 471.744L842.236 469.296C840.988 470.608 839.852 471.568 838.828 472.176C837.836 472.784 836.636 473.088 835.228 473.088C832.764 473.088 830.94 472.432 829.756 471.12C828.604 469.776 828.028 467.728 828.028 464.976C828.028 463.408 828.444 461.776 829.276 460.08C830.14 458.352 831.308 456.912 832.78 455.76C834.284 454.608 835.98 454.032 837.868 454.032C838.508 454.032 839.1 454.096 839.644 454.224C841.692 454.672 843.068 456.576 843.772 459.936C844.476 463.296 844.828 467.648 844.828 472.992C844.828 474.464 844.796 476.416 844.732 478.848L844.684 483.408C844.684 485.232 844.396 487.216 843.82 489.36C843.244 491.536 842.236 493.424 840.796 495.024C839.356 496.624 837.468 497.424 835.132 497.424ZM834.508 469.92C836.876 469.92 838.668 469.36 839.884 468.24C841.1 467.088 841.708 465.408 841.708 463.2C841.708 462.912 841.676 462.416 841.612 461.712C841.452 460.24 841.068 459.088 840.46 458.256C839.884 457.392 838.972 456.96 837.724 456.96C836.412 456.96 835.212 457.424 834.124 458.352C833.036 459.28 832.188 460.432 831.58 461.808C830.972 463.152 830.668 464.416 830.668 465.6C830.668 466.784 831.02 467.808 831.724 468.672C832.428 469.504 833.356 469.92 834.508 469.92ZM879.83 474.048C879.35 474.048 879.062 473.92 878.966 473.664C878.87 473.376 878.822 472.944 878.822 472.368C878.854 472.144 878.87 471.888 878.87 471.6C878.87 471.28 878.886 471.04 878.918 470.88C879.11 469.344 879.206 467.888 879.206 466.512C879.206 463.472 878.694 461.104 877.67 459.408C876.646 457.68 875.03 456.816 872.822 456.816C871.606 456.816 870.39 457.12 869.174 457.728C867.99 458.336 867.014 459.088 866.246 459.984C865.51 460.88 865.142 461.696 865.142 462.432C865.302 463.36 865.59 464.496 866.006 465.84C866.038 466 866.166 466.496 866.39 467.328C866.646 468.16 866.774 468.912 866.774 469.584L866.822 470.496C866.822 471.008 866.566 471.264 866.054 471.264C865.414 471.264 864.886 470.848 864.47 470.016C864.086 469.184 863.654 467.888 863.174 466.128C862.694 464.4 862.23 462.976 861.782 461.856C861.334 460.736 860.726 459.776 859.958 458.976C859.19 458.176 858.214 457.776 857.03 457.776C855.398 457.776 854.118 458.336 853.19 459.456C852.294 460.576 851.846 461.952 851.846 463.584C851.846 464.672 851.942 466.112 852.134 467.904C852.294 469.248 852.374 470.4 852.374 471.36C852.374 471.936 852.31 472.368 852.182 472.656C852.054 472.944 851.75 473.088 851.27 473.088C850.63 473.088 850.182 472.88 849.926 472.464C849.67 472.016 849.542 471.344 849.542 470.448C849.542 468.688 849.446 466.56 849.254 464.064C849.222 463.744 849.158 462.928 849.062 461.616C848.966 460.272 848.95 458.928 849.014 457.584L849.062 456C849.254 455.808 849.478 455.712 849.734 455.712C850.086 455.712 850.374 455.936 850.598 456.384C850.854 456.8 850.982 457.44 850.982 458.304C851.462 457.472 852.166 456.72 853.094 456.048C854.022 455.376 854.998 455.04 856.022 455.04C857.782 455.04 859.238 455.408 860.39 456.144C861.574 456.848 862.646 458 863.606 459.6C864.502 457.968 865.846 456.576 867.638 455.424C869.462 454.272 871.334 453.696 873.254 453.696C875.238 453.696 876.886 454.448 878.198 455.952C879.542 457.456 880.518 459.264 881.126 461.376C881.766 463.488 882.086 465.44 882.086 467.232C882.086 468.832 881.942 470.368 881.654 471.84C881.398 473.312 880.79 474.048 879.83 474.048ZM898.279 474C894.951 474 892.055 473.424 889.591 472.272C887.159 471.088 885.943 469.024 885.943 466.08C885.943 465.024 886.263 464 886.903 463.008C887.543 462.016 888.487 461.216 889.735 460.608C890.983 459.968 892.503 459.648 894.295 459.648C895.671 459.648 896.839 459.712 897.799 459.84C898.759 459.968 899.863 460.32 901.111 460.896C902.359 461.472 903.655 462.384 904.999 463.632C904.487 461.424 903.719 459.488 902.695 457.824C901.671 456.16 900.519 454.88 899.239 453.984C897.991 453.056 896.759 452.592 895.543 452.592C894.967 452.592 894.423 452.704 893.911 452.928C893.431 453.12 892.839 453.408 892.135 453.792C891.335 454.304 890.743 454.56 890.359 454.56C890.199 454.56 890.055 454.512 889.927 454.416C889.831 454.288 889.783 454.144 889.783 453.984C889.783 452.704 890.343 451.712 891.463 451.008C892.615 450.304 894.007 449.984 895.639 450.048C897.879 450.176 899.927 451.136 901.783 452.928C903.639 454.688 905.095 456.88 906.151 459.504C907.239 462.128 907.783 464.704 907.783 467.232C907.783 467.648 907.751 468.24 907.687 469.008L906.151 468.912C904.935 466.448 903.367 464.704 901.447 463.68C899.559 462.624 897.655 462.096 895.735 462.096C893.271 462.096 891.511 462.464 890.455 463.2C889.399 463.936 888.871 465.008 888.871 466.416C888.871 467.888 889.607 469.072 891.079 469.968C892.551 470.864 894.439 471.312 896.743 471.312C898.023 471.312 899.047 471.248 899.815 471.12C900.583 470.96 901.383 470.752 902.215 470.496C902.887 470.272 903.479 470.112 903.991 470.016C904.503 469.92 905.159 469.872 905.959 469.872C906.855 469.872 907.415 469.936 907.639 470.064C907.895 470.192 908.023 470.48 908.023 470.928C908.023 471.248 907.367 471.648 906.055 472.128C904.743 472.608 903.271 473.04 901.639 473.424C900.007 473.808 898.887 474 898.279 474Z" fill="white"/>
</svg>
