<svg xmlns:dc="http://purl.org/dc/elements/1.1/" xmlns:cc="http://creativecommons.org/ns#" xmlns:rdf="http://www.w3.org/1999/02/22-rdf-syntax-ns#" xmlns:svg="http://www.w3.org/2000/svg" xmlns="http://www.w3.org/2000/svg" xmlns:sodipodi="http://sodipodi.sourceforge.net/DTD/sodipodi-0.dtd" xmlns:inkscape="http://www.inkscape.org/namespaces/inkscape" width="210" height="297" viewBox="0 0 210 297" version="1.1" id="svg8" inkscape:version="0.92" sodipodi:docname="dibujo.svg">
  <defs id="defs2"/>
  <sodipodi:namedview id="base" pagecolor="#ffffff" bordercolor="#666666" borderopacity="1" inkscape:pageopacity="0" inkscape:pageshadow="2" inkscape:zoom="0.35" inkscape:cx="27.14" inkscape:cy="560" inkscape:document-units="mm" inkscape:current-layer="layer1" showgrid="false" inkscape:window-width="1366" inkscape:window-height="705" inkscape:window-x="-8" inkscape:window-y="-8" inkscape:window-maximized="1"/>
  <metadata id="metadata5">
    <rdf:RDF>
      <cc:Work rdf:about="">
        <dc:format>
          image/svg+xml
        </dc:format>
        <dc:type rdf:resource="http://purl.org/dc/dcmitype/StillImage"/>
      </cc:Work>
    </rdf:RDF>
  </metadata>
  <g inkscape:label="Capa 1" inkscape:groupmode="layer" id="circulo">
    <g id="g115">
      <ellipse ry="69.17" rx="68.79" cy="216.49" cx="108.86" id="path14" style="fill-rule:evenodd;fill:#e9afaf;stroke-dasharray:0.27;stroke-dashoffset:10.2;stroke-miterlimit:43.5;stroke-opacity:0.32;stroke-width:0.27;stroke:#d281fe"/>
    </g>
  </g>
  <g inkscape:groupmode="layer" id="estrellas" inkscape:label="estrellas">
    <g id="g112">
      <path inkscape:transform-center-y="-0.71" inkscape:transform-center-x="0.38" d="m72.77 205.91-6.95-2.73-6.19 4.17 0.45-7.45-5.88-4.59 7.22-1.87 2.55-7.01 4.01 6.29 7.46 0.26-4.74 5.76zM113.22 230.07l-6.95-2.73-6.19 4.17 0.45-7.45-5.88-4.59 7.22-1.87 2.55-7.01 4.01 6.29 7.46 0.26-4.74 5.76" inkscape:randomized="0" inkscape:rounded="0" inkscape:flatsided="false" sodipodi:arg2="1.46" sodipodi:arg1="0.83" sodipodi:r2="5.62" sodipodi:r1="11.24" sodipodi:cy="197.59" sodipodi:cx="65.21" sodipodi:sides="5" id="path18" sodipodi:type="star" style="fill-rule:evenodd;fill:#ff0;stroke-dasharray:0.27;stroke-dashoffset:10.2;stroke-miterlimit:43.5;stroke-opacity:0.32;stroke-width:0.27;stroke:#d281fe"/>
      <path inkscape:transform-center-y="-0.71" inkscape:transform-center-x="0.38" d="m113.22 230.07-6.95-2.73-6.19 4.17 0.45-7.45-5.88-4.59 7.22-1.87 2.55-7.01 4.01 6.29 7.46 0.26-4.74 5.76z" inkscape:randomized="0" inkscape:rounded="0" inkscape:flatsided="false" sodipodi:arg2="1.46" sodipodi:arg1="0.83" sodipodi:r2="5.62" sodipodi:r1="11.24" sodipodi:cy="221.75" sodipodi:cx="105.66" sodipodi:sides="5" id="path18-1" sodipodi:type="star" style="fill-rule:evenodd;fill:#ff0;stroke-dasharray:0.27;stroke-dashoffset:10.2;stroke-miterlimit:43.5;stroke-opacity:0.32;stroke-width:0.27;stroke:#d281fe"/>
      <path inkscape:transform-center-y="-0.71" inkscape:transform-center-x="0.38" d="m113.22 230.07-6.95-2.73-6.19 4.17 0.45-7.45-5.88-4.59 7.22-1.87 2.55-7.01 4.01 6.29 7.46 0.26-4.74 5.76z" inkscape:randomized="0" inkscape:rounded="0" inkscape:flatsided="false" sodipodi:arg2="1.46" sodipodi:arg1="0.83" sodipodi:r2="5.62" sodipodi:r1="11.24" sodipodi:cy="221.75" sodipodi:cx="105.66" sodipodi:sides="5" id="path18-3" sodipodi:type="star" style="fill-rule:evenodd;fill:#ff0;stroke-dasharray:0.27;stroke-dashoffset:10.2;stroke-miterlimit:43.5;stroke-opacity:0.32;stroke-width:0.27;stroke:#d281fe"/>
      <path inkscape:transform-center-y="-0.71" inkscape:transform-center-x="0.38" d="m142.7 183.2-6.95-2.73-6.19 4.17 0.45-7.45-5.88-4.59 7.22-1.87 2.55-7.01 4.01 6.29 7.46 0.26-4.74 5.76z" inkscape:randomized="0" inkscape:rounded="0" inkscape:flatsided="false" sodipodi:arg2="1.46" sodipodi:arg1="0.83" sodipodi:r2="5.62" sodipodi:r1="11.24" sodipodi:cy="174.88" sodipodi:cx="135.14" sodipodi:sides="5" id="path18-6" sodipodi:type="star" style="fill-rule:evenodd;fill:#ff0;stroke-dasharray:0.27;stroke-dashoffset:10.2;stroke-miterlimit:43.5;stroke-opacity:0.32;stroke-width:0.27;stroke:#d281fe"/>
      <path inkscape:transform-center-y="-0.71" inkscape:transform-center-x="0.38" d="m147.24 215.7-6.95-2.73-6.19 4.17 0.45-7.45-5.88-4.59 7.22-1.87 2.55-7.01 4.01 6.29 7.46 0.26-4.74 5.76z" inkscape:randomized="0" inkscape:rounded="0" inkscape:flatsided="false" sodipodi:arg2="1.46" sodipodi:arg1="0.83" sodipodi:r2="5.62" sodipodi:r1="11.24" sodipodi:cy="207.39" sodipodi:cx="139.68" sodipodi:sides="5" id="path18-66" sodipodi:type="star" style="fill-rule:evenodd;fill:#ff0;stroke-dasharray:0.27;stroke-dashoffset:10.2;stroke-miterlimit:43.5;stroke-opacity:0.32;stroke-width:0.27;stroke:#d281fe"/>
      <path inkscape:transform-center-y="-0.71" inkscape:transform-center-x="0.38" d="m146.48 248.21-6.95-2.73-6.19 4.17 0.45-7.45-5.88-4.59 7.22-1.87 2.55-7.01 4.01 6.29 7.46 0.26-4.74 5.76z" inkscape:randomized="0" inkscape:rounded="0" inkscape:flatsided="false" sodipodi:arg2="1.46" sodipodi:arg1="0.83" sodipodi:r2="5.62" sodipodi:r1="11.24" sodipodi:cy="239.89" sodipodi:cx="138.92" sodipodi:sides="5" id="path18-9" sodipodi:type="star" style="fill-rule:evenodd;fill:#ff0;stroke-dasharray:0.27;stroke-dashoffset:10.2;stroke-miterlimit:43.5;stroke-opacity:0.32;stroke-width:0.27;stroke:#d281fe"/>
      <path inkscape:transform-center-y="-0.71" inkscape:transform-center-x="0.38" d="m83.74 248.97-6.95-2.73-6.19 4.17 0.45-7.45-5.88-4.59 7.22-1.87 2.55-7.01 4.01 6.29 7.46 0.26-4.74 5.76z" inkscape:randomized="0" inkscape:rounded="0" inkscape:flatsided="false" sodipodi:arg2="1.46" sodipodi:arg1="0.83" sodipodi:r2="5.62" sodipodi:r1="11.24" sodipodi:cy="240.65" sodipodi:cx="76.18" sodipodi:sides="5" id="path18-99" sodipodi:type="star" style="fill-rule:evenodd;fill:#ff0;stroke-dasharray:0.27;stroke-dashoffset:10.2;stroke-miterlimit:43.5;stroke-opacity:0.32;stroke-width:0.27;stroke:#d281fe"/>
    </g>
  </g>
</svg>
